<?xml version="1.0" encoding="UTF-8"?>
<svg id="Layer_1" data-name="Layer 1" xmlns="http://www.w3.org/2000/svg" viewBox="0 0 50.64 41.6">
  <defs>
    <style>
      .cls-1 {
        fill: none;
        stroke: #2c1a26;
        stroke-linecap: square;
        stroke-miterlimit: 1.29;
        stroke-width: 1.72px;
      }

      .cls-2 {
        fill: #7e5c38;
      }

      .cls-3 {
        fill: #5b4228;
      }

      .cls-4 {
        fill: #8f6840;
      }

      .cls-5 {
        fill: red;
      }
    </style>
  </defs>
  <g id="Shoot_0_Layer0_0_FILL" data-name="Shoot 0 Layer0 0 FILL">
    <path d="M49.96,36.87c.46-.49,.69-1,.69-1.53s-.23-1.03-.69-1.51c-1.05-1.11-3.29-2.08-6.72-2.93-4.95-1.22-10.92-1.83-17.91-1.83s-12.98,.61-17.91,1.83c-3.5,.86-5.76,1.86-6.78,2.99-.42,.46-.62,.94-.62,1.44s.21,.98,.62,1.44c1.02,1.13,3.28,2.13,6.78,2.99,4.94,1.22,10.91,1.83,17.91,1.83,6.99,0,12.96-.61,17.91-1.83,3.43-.85,5.67-1.82,6.72-2.91Z"/>
  </g>
  <g>
    <g>
      <g id="Symbol_2_0_Layer0_0_FILL" data-name="Symbol 2 0 Layer0 0 FILL">
        <path class="cls-3" d="M19.34,9.26L8.89,1.21l1.18,28.42,7.45,7.62,1.81-27.99Z"/>
        <path class="cls-4" d="M8.89,1.21l10.44,8.05,27.48-1.61-11.54-5.15L8.89,1.21Z"/>
        <path class="cls-2" d="M45.2,37.25l1.61-29.61-27.48,1.61-1.81,27.99h27.67Z"/>
      </g>
      <path id="Symbol_2_0_Layer0_0_1_STROKES" data-name="Symbol 2 0 Layer0 0 1 STROKES" class="cls-1" d="M46.81,7.65l-1.61,29.61H17.53l-7.45-7.62L8.89,1.21l26.38,1.29,11.54,5.15-27.48,1.61-1.81,27.99M8.89,1.21l10.44,8.05"/>
    </g>
    <g id="Symbol_1_0_Layer0_0_FILL" data-name="Symbol 1 0 Layer0 0 FILL">
      <path class="cls-5" d="M40.86,25.03l-5.61-1.16,6.14-5.99-7.39,3.59,.77-5.21c-3.58,3.63-7.14,8.14-10.67,13.54,6.31-1.67,11.9-3.26,16.76-4.76Z"/>
    </g>
    <g id="Symbol_1_0_Layer0_0_FILL-2" data-name="Symbol 1 0 Layer0 0 FILL">
      <path class="cls-5" d="M38.76,34.45l-3.83-2.55,7.15-1.92-7.13-.04,2.71-3.13c-4.22,1.21-8.79,3-13.69,5.37,5.52,.94,10.45,1.7,14.79,2.28Z"/>
    </g>
    <g id="Symbol_1_0_Layer0_0_FILL-3" data-name="Symbol 1 0 Layer0 0 FILL">
      <path class="cls-5" d="M30.68,15.72l-3.85,2.51,1.06-7.32-2.85,6.53-1.81-3.73c-.56,4.36-.72,9.26-.48,14.7,3.04-4.7,5.69-8.93,7.94-12.68Z"/>
    </g>
  </g>
</svg>