<svg version="1.1" xmlns="http://www.w3.org/2000/svg" xmlns:xlink="http://www.w3.org/1999/xlink" width="50.64" height="40.26071" viewBox="0,0,50.64,40.26071"><g transform="translate(-214.69,-160.5393)"><g data-paper-data="{&quot;isPaintingLayer&quot;:true}" fill-rule="nonzero" stroke-linejoin="miter" stroke-dasharray="" stroke-dashoffset="0" style="mix-blend-mode: normal"><path d="M240.01,200.8c-7,0 -12.97,-0.61 -17.91,-1.83c-4.94,-1.22 -7.41,-2.7 -7.41,-4.44c0,-1.74 2.47,-3.22 7.41,-4.44c4.93,-1.22 10.92,-1.83 17.91,-1.83c6.99,0 12.96,0.61 17.91,1.83c4.94,1.22 7.41,2.7 7.41,4.44c0,1.74 -2.47,3.22 -7.41,4.44c-4.95,1.22 -10.92,1.83 -17.91,1.83z" fill="#000000" stroke="none" stroke-width="1" stroke-linecap="butt" stroke-miterlimit="10"/><g><g><g stroke="none" stroke-width="1" stroke-linecap="butt" stroke-miterlimit="10"><path d="M230.00355,169.79548l-1.81,27.99l-7.45,-7.62l-1.18,-28.42l10.45,8.05z" fill="#2d5b20"/><path d="M245.94355,163.03548l11.54,5.15l-27.48,1.61l-10.44,-8.05z" fill="#489335"/><path d="M255.86355,197.77548h-27.67l1.81,-27.99l27.48,-1.61l-1.61,29.61z" fill="#3e7e2d"/></g><path d="M257.48355,168.18548l-1.61,29.61h-27.67l-7.45,-7.62l-1.19,-28.43l26.38,1.29l11.54,5.15l-27.48,1.61l-1.81,27.99M219.56355,161.74548l10.44,8.05" fill="none" stroke="#2c1a26" stroke-width="1.72" stroke-linecap="square" stroke-miterlimit="1.29"/></g><g fill="#ffffff" stroke="none" stroke-width="1" stroke-linecap="butt" stroke-miterlimit="10"><path d="M248.50355,183.13548l-1.07,1.04l0.18,-1.46l-1.3,-0.67l1.44,-0.3l0.25,-1.44l0.71,1.27l1.46,-0.21l-0.99,1.07l0.66,1.31l-1.34,-0.61M251.04355,177.15548c-0.01,0.15 -0.07,0.29 -0.18,0.41c-0.11,0.11 -0.24,0.17 -0.39,0.17c-0.15,0 -0.28,-0.04 -0.41,-0.13c-0.12,-0.1 -0.24,-0.19 -0.35,-0.27c-1.53,-1.07 -3.21,-1.43 -5.01,-1.12c-1.8,0.31 -3.23,1.23 -4.28,2.75h-0.02c-1.06,1.49 -1.43,3.14 -1.11,4.95c0.32,1.81 1.23,3.24 2.74,4.29h0.02c1.5,1.06 3.15,1.43 4.95,1.11c1.81,-0.32 3.25,-1.23 4.33,-2.74c0.07,-0.11 0.14,-0.22 0.21,-0.32c0.08,-0.13 0.18,-0.21 0.32,-0.26c0.15,-0.04 0.3,-0.02 0.44,0.04c0.13,0.07 0.23,0.19 0.29,0.33c0.06,0.15 0.05,0.29 0,0.42c-0.28,0.72 -0.66,1.43 -1.14,2.11c-1.58,2.24 -3.72,3.6 -6.42,4.07c-2.7,0.48 -5.17,-0.07 -7.41,-1.64c-2.25,-1.58 -3.62,-3.72 -4.09,-6.42c-0.47,-2.7 0.08,-5.17 1.66,-7.41c1.56,-2.25 3.7,-3.62 6.4,-4.09c2.7,-0.47 5.18,0.08 7.43,1.66c0.71,0.49 1.34,1.05 1.88,1.68c0.1,0.11 0.14,0.24 0.14,0.39z"/></g></g></g></g></svg>