<?xml version="1.0" encoding="UTF-8"?>
<svg id="Layer_1" data-name="Layer 1" xmlns="http://www.w3.org/2000/svg" xmlns:xlink="http://www.w3.org/1999/xlink" viewBox="0 0 505.15 403.1">
  <defs>
    <style>
      .cls-1 {
        fill: none;
        stroke: #333;
        stroke-linecap: square;
        stroke-miterlimit: 3;
        stroke-width: 2px;
      }

      .cls-2 {
        fill: url(#linear-gradient);
      }
    </style>
    <linearGradient id="linear-gradient" x1="116.6" y1="318.05" x2="116.6" y2="369.05" gradientTransform="translate(138.35 556) scale(1 -1)" gradientUnits="userSpaceOnUse">
      <stop offset="0" stop-color="red"/>
      <stop offset="1" stop-color="#ffd47c"/>
    </linearGradient>
  </defs>
  <g id="Game_Over_0_Layer2_0_FILL" data-name="Game Over 0 Layer2 0 FILL">
    <path d="M505.15,0H0V403.1H505.15V0Z"/>
  </g>
  <path id="Game_Over_0_Layer1_0_1_STROKES" data-name="Game Over 0 Layer1 0 1 STROKES" class="cls-1" d="M361.75,192.25c-.97-.13-1.82-.2-2.55-.2-2.67,0-4.42,.9-5.25,2.7v17.3h-7.05v-10.9h-16.85c.23,1.7,.93,3.08,2.1,4.15,1.13,1.03,2.58,1.55,4.35,1.55,2.7,0,4.82-.98,6.35-2.95l3.45,3.9c-1.03,1.47-2.47,2.63-4.3,3.5-1.8,.83-3.8,1.25-6,1.25-3.87,0-7.02-1.2-9.45-3.6-2.43-2.37-3.65-5.52-3.65-9.45v-.7c0-2.67,.52-5.03,1.55-7.1,1.03-2.1,2.48-3.72,4.35-4.85,1.87-1.13,4.02-1.7,6.45-1.7,3.6,0,6.45,1.13,8.55,3.4,1.93,2.17,2.97,5.15,3.1,8.95v-11.85h6.7l.15,3.15c1.43-2.43,3.4-3.65,5.9-3.65,.8,0,1.53,.1,2.2,.3l-.1,6.8Zm-26.55-1.4c-1.4,0-2.53,.47-3.4,1.4-.87,.97-1.42,2.33-1.65,4.1h9.8v-.6c-.03-1.57-.45-2.77-1.25-3.6-.83-.87-2-1.3-3.5-1.3Zm-33.45,4.25c0,3.5-.62,6.57-1.85,9.2-1.23,2.63-3,4.67-5.3,6.1-2.3,1.43-4.93,2.15-7.9,2.15s-5.6-.72-7.9-2.15c-2.3-1.4-4.08-3.42-5.35-6.05-1.3-2.63-1.95-5.65-1.95-9.05v-1.8c0-3.5,.63-6.57,1.9-9.2,1.27-2.67,3.05-4.72,5.35-6.15,2.3-1.43,4.93-2.15,7.9-2.15s5.6,.72,7.9,2.15c2.3,1.43,4.08,3.48,5.35,6.15,.2,.43,.4,.88,.6,1.35h7.1l4.9,17.8,4.9-17.8h7.4l-8.95,26.4h-6.7l-7.75-22.85c.23,1.37,.35,2.8,.35,4.3v1.6Zm-7.4-1.65c0-3.7-.67-6.53-2-8.5-1.33-1.93-3.23-2.9-5.7-2.9-2.47,0-4.37,.97-5.7,2.9-1.33,1.9-2.02,4.7-2.05,8.4v1.75c0,3.63,.67,6.45,2,8.45,1.37,2,3.3,3,5.8,3,2.43,0,4.32-.97,5.65-2.9,1.33-1.93,2-4.75,2-8.45v-1.75Zm-42.4-2.6c-1.4,0-2.53,.47-3.4,1.4-.87,.97-1.42,2.33-1.65,4.1h9.8v-.6c-.03-1.57-.45-2.77-1.25-3.6-.83-.87-2-1.3-3.5-1.3Zm.8,21.7c-3.87,0-7.02-1.2-9.45-3.6-2.43-2.37-3.65-5.52-3.65-9.45v-.7c0-2.67,.52-5.03,1.55-7.1,1.03-2.1,2.48-3.72,4.35-4.85,1.87-1.13,4.02-1.7,6.45-1.7,3.6,0,6.45,1.13,8.55,3.4,2.07,2.3,3.1,5.53,3.1,9.7v2.9h-16.85c.23,1.7,.93,3.08,2.1,4.15,1.13,1.03,2.58,1.55,4.35,1.55,2.7,0,4.82-.98,6.35-2.95l3.45,3.9c-1.03,1.47-2.47,2.63-4.3,3.5-1.8,.83-3.8,1.25-6,1.25Zm-44.8-26.9l.2,2.95c1.87-2.3,4.4-3.45,7.6-3.45,3.4,0,5.73,1.33,7,4,1.87-2.67,4.52-4,7.95-4,2.87,0,5,.83,6.4,2.5,1.4,1.67,2.1,4.18,2.1,7.55v16.85h-7.1v-16.85c0-1.5-.3-2.58-.9-3.25-.57-.7-1.6-1.05-3.1-1.05-2.1,0-3.57,1-4.4,3l.05,18.15h-7.05v-16.8c0-1.53-.3-2.65-.9-3.35-.6-.67-1.63-1-3.1-1-2,0-3.45,.82-4.35,2.45v18.7h-7.05v-26.4h6.65Zm-14.15,26.4c-.3-.63-.53-1.42-.7-2.35-1.7,1.9-3.92,2.85-6.65,2.85s-4.75-.75-6.45-2.25c-1.7-1.5-2.55-3.38-2.55-5.65,0-2.8,1.05-4.95,3.15-6.45,2.07-1.5,5.05-2.27,8.95-2.3h3.25v-1.5c0-1.23-.3-2.22-.9-2.95-.63-.73-1.63-1.1-3-1.1-1.17,0-2.08,.28-2.75,.85-.7,.6-1.05,1.38-1.05,2.35h-7.05c0-1.53,.47-2.95,1.4-4.25,.97-1.3,2.3-2.32,4-3.05,1.73-.73,3.68-1.1,5.85-1.1,3.23,0,5.82,.82,7.75,2.45,1.9,1.63,2.85,3.93,2.85,6.9v11.45c0,2.5,.35,4.4,1.05,5.7v.4h-7.15Zm-5.8-4.9c1.03,0,1.98-.23,2.85-.7,.9-.47,1.55-1.08,1.95-1.85v-4.55h-2.6c-3.53,0-5.42,1.22-5.65,3.65l-.05,.4c0,.9,.32,1.63,.95,2.2,.6,.57,1.45,.85,2.55,.85Zm-10.95,.4c-1.33,1.6-3.2,2.83-5.6,3.7-2.4,.87-5.07,1.3-8,1.3s-5.77-.67-8.1-2c-2.3-1.37-4.08-3.32-5.35-5.85-1.27-2.57-1.92-5.58-1.95-9.05v-2.4c0-3.53,.6-6.6,1.8-9.2,1.2-2.6,2.93-4.58,5.2-5.95,2.23-1.4,4.87-2.1,7.9-2.1,4.2,0,7.5,1.02,9.9,3.05,2.37,2,3.77,4.92,4.2,8.75h-7.15c-.3-2.03-1.02-3.52-2.15-4.45-1.1-.97-2.63-1.45-4.6-1.45-2.5,0-4.4,.95-5.7,2.85-1.3,1.87-1.95,4.65-1.95,8.35v2.25c0,3.73,.7,6.55,2.1,8.45,1.43,1.9,3.52,2.85,6.25,2.85s4.68-.58,5.85-1.75v-6.15h-6.65v-5.4h14v14.2Z"/>
  <g id="Game_Over_0_Layer0_0_FILL" data-name="Game Over 0 Layer0 0 FILL">
    <path class="cls-2" d="M169.9,187.8h7.15c-.43-3.83-1.83-6.75-4.2-8.75-2.4-2.03-5.7-3.05-9.9-3.05-3.03,0-5.67,.7-7.9,2.1-2.27,1.37-4,3.35-5.2,5.95-1.2,2.6-1.8,5.67-1.8,9.2v2.4c.03,3.47,.68,6.48,1.95,9.05,1.27,2.53,3.05,4.48,5.35,5.85,2.33,1.33,5.03,2,8.1,2s5.6-.43,8-1.3c2.4-.87,4.27-2.1,5.6-3.7v-14.2h-14v5.4h6.65v6.15c-1.17,1.17-3.12,1.75-5.85,1.75s-4.82-.95-6.25-2.85c-1.4-1.9-2.1-4.72-2.1-8.45v-2.25c0-3.7,.65-6.48,1.95-8.35,1.3-1.9,3.2-2.85,5.7-2.85,1.97,0,3.5,.48,4.6,1.45,1.13,.93,1.85,2.42,2.15,4.45m27.15-.2c-1.93-1.63-4.52-2.45-7.75-2.45-2.17,0-4.12,.37-5.85,1.1-1.7,.73-3.03,1.75-4,3.05-.93,1.3-1.4,2.72-1.4,4.25h7.05c0-.97,.35-1.75,1.05-2.35,.67-.57,1.58-.85,2.75-.85,1.37,0,2.37,.37,3,1.1,.6,.73,.9,1.72,.9,2.95v1.5h-3.25c-3.9,.03-6.88,.8-8.95,2.3-2.1,1.5-3.15,3.65-3.15,6.45,0,2.27,.85,4.15,2.55,5.65,1.7,1.5,3.85,2.25,6.45,2.25,2.73,0,4.95-.95,6.65-2.85,.17,.93,.4,1.72,.7,2.35h7.15v-.4c-.7-1.3-1.05-3.2-1.05-5.7v-11.45c0-2.97-.95-5.27-2.85-6.9m-6.85,12.45h2.6v4.55c-.4,.77-1.05,1.38-1.95,1.85-.87,.47-1.82,.7-2.85,.7-1.1,0-1.95-.28-2.55-.85-.63-.57-.95-1.3-.95-2.2l.05-.4c.23-2.43,2.12-3.65,5.65-3.65m41-8.1c.6,.67,.9,1.75,.9,3.25v16.85h7.1v-16.85c0-3.37-.7-5.88-2.1-7.55-1.4-1.67-3.53-2.5-6.4-2.5-3.43,0-6.08,1.33-7.95,4-1.27-2.67-3.6-4-7-4-3.2,0-5.73,1.15-7.6,3.45l-.2-2.95h-6.65v26.4h7.05v-18.7c.9-1.63,2.35-2.45,4.35-2.45,1.47,0,2.5,.33,3.1,1,.6,.7,.9,1.82,.9,3.35v16.8h7.05l-.05-18.15c.83-2,2.3-3,4.4-3,1.5,0,2.53,.35,3.1,1.05m32.45,6.3c0-4.17-1.03-7.4-3.1-9.7-2.1-2.27-4.95-3.4-8.55-3.4-2.43,0-4.58,.57-6.45,1.7-1.87,1.13-3.32,2.75-4.35,4.85-1.03,2.07-1.55,4.43-1.55,7.1v.7c0,3.93,1.22,7.08,3.65,9.45,2.43,2.4,5.58,3.6,9.45,3.6,2.2,0,4.2-.42,6-1.25,1.83-.87,3.27-2.03,4.3-3.5l-3.45-3.9c-1.53,1.97-3.65,2.95-6.35,2.95-1.77,0-3.22-.52-4.35-1.55-1.17-1.07-1.87-2.45-2.1-4.15h16.85v-2.9m-6.95-2.5v.6h-9.8c.23-1.77,.78-3.13,1.65-4.1,.87-.93,2-1.4,3.4-1.4,1.5,0,2.67,.43,3.5,1.3,.8,.83,1.22,2.03,1.25,3.6m68.1-10.1h-7.4l-4.9,17.8-4.9-17.8h-7.1c-.2-.47-.4-.92-.6-1.35-1.27-2.67-3.05-4.72-5.35-6.15-2.3-1.43-4.93-2.15-7.9-2.15s-5.6,.72-7.9,2.15c-2.3,1.43-4.08,3.48-5.35,6.15-1.27,2.63-1.9,5.7-1.9,9.2v1.8c0,3.4,.65,6.42,1.95,9.05,1.27,2.63,3.05,4.65,5.35,6.05,2.3,1.43,4.93,2.15,7.9,2.15s5.6-.72,7.9-2.15c2.3-1.43,4.07-3.47,5.3-6.1,1.23-2.63,1.85-5.7,1.85-9.2v-1.6c0-1.5-.12-2.93-.35-4.3l7.75,22.85h6.7l8.95-26.4m-30.45,7.8v1.75c0,3.7-.67,6.52-2,8.45-1.33,1.93-3.22,2.9-5.65,2.9-2.5,0-4.43-1-5.8-3-1.33-2-2-4.82-2-8.45v-1.75c.03-3.7,.72-6.5,2.05-8.4,1.33-1.93,3.23-2.9,5.7-2.9,2.47,0,4.37,.97,5.7,2.9,1.33,1.97,2,4.8,2,8.5m64.85-1.4c.73,0,1.58,.07,2.55,.2l.1-6.8c-.67-.2-1.4-.3-2.2-.3-2.5,0-4.47,1.22-5.9,3.65l-.15-3.15h-6.7v11.85c-.13-3.8-1.17-6.78-3.1-8.95-2.1-2.27-4.95-3.4-8.55-3.4-2.43,0-4.58,.57-6.45,1.7-1.87,1.13-3.32,2.75-4.35,4.85-1.03,2.07-1.55,4.43-1.55,7.1v.7c0,3.93,1.22,7.08,3.65,9.45,2.43,2.4,5.58,3.6,9.45,3.6,2.2,0,4.2-.42,6-1.25,1.83-.87,3.27-2.03,4.3-3.5l-3.45-3.9c-1.53,1.97-3.65,2.95-6.35,2.95-1.77,0-3.22-.52-4.35-1.55-1.17-1.07-1.87-2.45-2.1-4.15h16.85v10.9h7.05v-17.3c.83-1.8,2.58-2.7,5.25-2.7m-24-1.2c1.5,0,2.67,.43,3.5,1.3,.8,.83,1.22,2.03,1.25,3.6v.6h-9.8c.23-1.77,.78-3.13,1.65-4.1,.87-.93,2-1.4,3.4-1.4Z"/>
  </g>
</svg>