<?xml version="1.0" encoding="UTF-8"?>
<svg id="Layer_1" data-name="Layer 1" xmlns="http://www.w3.org/2000/svg" viewBox="0 0 43.96 27.66">
  <defs>
    <style>
      .cls-1 {
        fill: #fff;
      }

      .cls-2 {
        fill: none;
        stroke: #2c1a26;
        stroke-linecap: round;
        stroke-linejoin: round;
        stroke-width: 1.61px;
      }

      .cls-3 {
        fill: #ca975c;
      }

      .cls-4 {
        fill: #999;
      }

      .cls-5 {
        fill: #dca464;
      }
    </style>
  </defs>
  <g id="Layer0_0_FILL" data-name="Layer0 0 FILL">
    <path class="cls-4" d="M14,11.65c-.57-.57-1.27-.85-2.1-.85s-1.55,.28-2.15,.85c-.57,.6-.85,1.32-.85,2.15s.28,1.53,.85,2.1c.6,.6,1.32,.9,2.15,.9s1.53-.3,2.1-.9c.6-.57,.9-1.27,.9-2.1s-.3-1.55-.9-2.15Z"/>
  </g>
  <g>
    <g id="playa_0_Layer0_0_FILL" data-name="playa 0 Layer0 0 FILL">
      <path class="cls-3" d="M19.24,2.57c-.35-.23-.71-.44-1.09-.62-1.57-.74-3.38-1.12-5.43-1.15-3.69-.03-6.56,1.14-8.61,3.5C2.04,6.65,.94,9.81,.82,13.78c-.16,3.97,.97,7.23,3.4,9.77,2.4,2.51,5.31,3.59,8.73,3.24,.67-.09,1.31-.21,1.93-.34,1.02-.25,1.96-.6,2.84-1.05l.24-.12c1.15-.67,2.18-1.53,3.08-2.57,1.98-2.37,3.04-5.44,3.16-9.19,.03-.72,.01-1.41-.04-2.05-.03-.13-.04-.27-.04-.42-.29-2.65-1.23-4.88-2.8-6.68-.48-.55-1-1.03-1.55-1.45-.19-.12-.36-.23-.52-.34m.68,3.38c.21,.28,.41,.57,.58,.86,.28,.08,.54,.29,.76,.62,.03,.03,.05,.05,.08,.08,.29,.51,.44,1.12,.44,1.83,0,.35-.03,.67-.1,.97,.03,.23,.06,.47,.1,.72-.03,.03-.03,.05,0,.08v.34c.09,1.89-.38,3.51-1.41,4.85-.12,.11-.23,.23-.32,.38,.07-.03,.13-.04,.2-.04,.4,0,.74,.22,1.01,.66,.03,.03,.05,.05,.08,.06,.29,.51,.44,1.12,.44,1.83s-.15,1.33-.44,1.81c-.31,.51-.67,.76-1.09,.76-.39,0-.71-.19-.97-.56-.04-.07-.09-.13-.14-.2-.27-.48-.4-1.09-.4-1.81,0-.08,0-.17,0-.26,0-.19,.02-.36,.06-.52l-.04,.04s-.07,0-.1,.02c-.25,.05-.61,.19-1.07,.42-.48,.2-.88,.3-1.21,.3-2.55,.66-4.66,.08-6.33-1.73-1.72-1.8-2.43-4.15-2.15-7.06,.23-2.92,1.23-5.02,3.02-6.29,1.77-1.29,3.44-1.64,5.01-1.07,1.57,.55,2.9,1.51,3.98,2.9Z"/>
      <path class="cls-1" d="M20.06,16.69c-.29,.04-.58,.22-.86,.54s-.42,.61-.42,.86c-.01,.21-.01,.34,0,.36l.04-.04c-.04,.16-.06,.34-.06,.52,0,.09,0,.18,0,.26,0,.72,.13,1.33,.4,1.81,.05,.07,.1,.13,.14,.2,.25,.38,.58,.56,.97,.56,.42,0,.78-.25,1.09-.76,.29-.48,.44-1.09,.44-1.81s-.15-1.32-.44-1.83c-.03-.01-.05-.03-.08-.06-.27-.44-.6-.66-1.01-.66-.07,0-.13,.01-.2,.04m.2-9.89c-.39,0-.71,.18-.97,.54-.04,.05-.09,.11-.14,.18-.25,.43-.39,.95-.4,1.55,0,.09,0,.19,0,.28,0,.67,.13,1.23,.38,1.69,0,.05,0,.09,.02,.1,.05,.08,.1,.15,.14,.22,.03,.03,.05,.06,.08,.1,.25,.29,.55,.44,.88,.44s.62-.15,.86-.44c.08-.09,.15-.2,.22-.32,.01-.01,.03-.05,.06-.1,.12-.23,.21-.47,.28-.72,.07-.29,.1-.62,.1-.97,0-.71-.15-1.32-.44-1.83-.03-.03-.05-.05-.08-.08-.23-.34-.48-.54-.76-.62-.08-.01-.16-.02-.24-.02Z"/>
      <path class="cls-5" d="M19.3,7.34c.25-.36,.58-.54,.97-.54,.08,0,.16,0,.24,.02-.17-.29-.37-.58-.58-.86-1.09-1.38-2.41-2.35-3.98-2.9-1.57-.58-3.24-.22-5.01,1.07-1.78,1.27-2.79,3.37-3.02,6.29-.28,2.91,.44,5.26,2.15,7.06,1.68,1.81,3.79,2.39,6.33,1.73,.32,0,.72-.1,1.21-.3,.46-.23,.81-.37,1.07-.42,.03-.01,.06-.02,.1-.02-.01-.03-.01-.15,0-.36,0-.25,.14-.54,.42-.86s.57-.5,.86-.54c.09-.15,.2-.27,.32-.38,1.03-1.34,1.5-2.96,1.41-4.85v-.34s-.03-.05,0-.08c-.04-.25-.07-.5-.1-.72-.07,.25-.16,.5-.28,.72-.03,.05-.05,.09-.06,.1-.07,.12-.14,.23-.22,.32-.24,.29-.53,.44-.86,.44s-.63-.15-.88-.44c-.03-.04-.05-.07-.08-.1-.04-.07-.09-.14-.14-.22-.01-.01-.02-.05-.02-.1-.25-.46-.38-1.02-.38-1.69,0-.09,0-.19,0-.28,.01-.6,.15-1.12,.4-1.55,.05-.07,.1-.13,.14-.18Z"/>
      <path class="cls-4" d="M43.15,16.31v-3.98l-12.87-1.15v6.17l12.87-1.05Z"/>
    </g>
    <path id="playa_0_Layer0_0_1_STROKES" data-name="playa 0 Layer0 0 1 STROKES" class="cls-2" d="M30.28,11.18l12.87,1.15v3.98l-12.87,1.05v-6.17Zm-12.33,14.1l-.24,.12c-.87,.44-1.82,.79-2.84,1.05-.62,.13-1.26,.25-1.93,.34-3.42,.35-6.33-.73-8.73-3.24C1.79,21,.66,17.74,.82,13.78c.12-3.97,1.22-7.13,3.3-9.47C6.17,1.94,9.04,.78,12.72,.8c2.05,.03,3.86,.41,5.43,1.15,.38,.19,.74,.4,1.09,.62,.16,.11,.34,.22,.52,.34l10.06,7M19.76,2.92c.55,.42,1.07,.9,1.55,1.45,1.57,1.8,2.5,4.02,2.8,6.68,0,.15,.01,.29,.04,.42,.05,.64,.07,1.33,.04,2.05-.12,3.75-1.17,6.82-3.16,9.19-.9,1.05-1.92,1.9-3.08,2.57l11.78-6.33"/>
  </g>
</svg>