<svg version="1.1" xmlns="http://www.w3.org/2000/svg" xmlns:xlink="http://www.w3.org/1999/xlink" width="84.9" height="37.35" viewBox="0,0,84.9,37.35"><g transform="translate(-197.55,-161.325)"><g data-paper-data="{&quot;isPaintingLayer&quot;:true}" fill-rule="nonzero" stroke="none" stroke-width="1" stroke-linecap="butt" stroke-linejoin="miter" stroke-miterlimit="10" stroke-dasharray="" stroke-dashoffset="0" style="mix-blend-mode: normal"><path d="M227.1,177.825h13.35c-5.03,1.73 -8.65,4.03 -10.85,6.9c1.17,2.47 3.92,4.75 8.25,6.85l-19.55,-5.35c-0.27,1.87 0.45,3.73 2.15,5.6c-4.6,-1.43 -8.43,-3.63 -11.5,-6.6l-1.5,5c-3.5,-3 -6.8,-6.77 -9.9,-11.3c3.87,-3.07 7.58,-5.22 11.15,-6.45c1,1.77 2.7,3.38 5.1,4.85c5.63,-3.3 10.65,-5.47 15.05,-6.5l-1.75,7M211.85,178.375c-0.7,0 -1.7,-0.37 -3,-1.1c-1.33,-0.73 -3.37,-0.68 -6.1,0.15c-2.77,0.8 -3.37,1.78 -1.8,2.95c1.57,1.17 2.98,2.05 4.25,2.65c1.23,0.57 2.52,0.83 3.85,0.8c1.33,-0.03 5.23,-0.83 11.7,-2.4c6.47,-1.6 6.78,-2.52 0.95,-2.75c-5.87,-0.23 -9.15,-0.33 -9.85,-0.3z" fill="#f7be72"/><path d="M220.75,181.425c-6.47,1.57 -10.37,2.37 -11.7,2.4c-1.33,0.03 -2.62,-0.23 -3.85,-0.8c-1.27,-0.6 -2.68,-1.48 -4.25,-2.65c-1.57,-1.17 -0.97,-2.15 1.8,-2.95c2.73,-0.83 4.77,-0.88 6.1,-0.15c1.3,0.73 2.3,1.1 3,1.1c0.7,-0.03 3.98,0.07 9.85,0.3c5.83,0.23 5.52,1.15 -0.95,2.75M209.15,183.375c0.7,0 0.52,-0.02 -0.55,-0.05c0.17,0.03 0.35,0.05 0.55,0.05z" fill="#ffffff"/><path d="M248.95,196.225c-8.33,-0.6 -16.67,-2.23 -25,-4.9c0.23,2.43 1.2,4.85 2.9,7.25c-5.27,-2.17 -10.45,-5.37 -15.55,-9.6c-1.07,3.23 -1.07,6.47 0,9.7c-6.63,-6 -11.22,-12.58 -13.75,-19.75c3.1,4.53 6.4,8.3 9.9,11.3l1.5,-5c3.07,2.97 6.9,5.17 11.5,6.6c-1.7,-1.87 -2.42,-3.73 -2.15,-5.6l19.55,5.35c-4.33,-2.1 -7.08,-4.38 -8.25,-6.85c2.2,-2.87 5.82,-5.17 10.85,-6.9h-13.35l1.75,-7c-4.4,1.03 -9.42,3.2 -15.05,6.5c-2.4,-1.47 -4.1,-3.08 -5.1,-4.85c-3.57,1.23 -7.28,3.38 -11.15,6.45c3.8,-5.27 8.25,-9.77 13.35,-13.5c-0.23,2.23 0.48,4.45 2.15,6.65c11.07,-5.37 21,-8.95 29.8,-10.75c-6.33,5.77 -9.68,10.05 -10.05,12.85c15.83,-0.5 29.97,-0.13 42.4,1.1c2.5,0.23 4.92,0.5 7.25,0.8c-2.37,0.67 -4.78,1.32 -7.25,1.95c-11.13,2.73 -23.52,4.95 -37.15,6.65z" fill="#f74800"/></g></g></svg>