<svg version="1.1" xmlns="http://www.w3.org/2000/svg" xmlns:xlink="http://www.w3.org/1999/xlink" width="30.95606" height="23.57896" viewBox="0,0,30.95606,23.57896"><g transform="translate(-228.21053,-168.21053)"><g data-paper-data="{&quot;isPaintingLayer&quot;:true}" fill-rule="nonzero" stroke-linejoin="miter" stroke-miterlimit="10" stroke-dasharray="" stroke-dashoffset="0" style="mix-blend-mode: normal"><path d="M229.21053,180.00002c0,-5.95886 4.83062,-10.78948 10.78948,-10.78948c5.95886,0 10.78948,4.83062 10.78948,10.78948c0,5.95886 -4.83062,10.78948 -10.78948,10.78948c-5.95886,0 -10.78948,-4.83062 -10.78948,-10.78948z" fill="#006f13" stroke="#000000" stroke-width="2" stroke-linecap="butt"/><path d="M258.16659,183.1354l-9.69778,3.6049" fill="none" stroke="#000000" stroke-width="2" stroke-linecap="round"/><path d="M255.30994,177.50297l-4.58047,-1.31679" fill="none" stroke="#000000" stroke-width="2" stroke-linecap="round"/><path d="M236.2807,186.59944c-0.3167,0 -0.59901,-0.14722 -0.78224,-0.37696c-0.00975,-0.0042 -0.01944,-0.0085 -0.02908,-0.01291c-0.63348,0.41191 -1.21157,-0.16618 -1.21157,-0.16618l0.29249,0.01959c-0.45362,-0.04482 -0.87857,-0.2164 -1.27786,-0.4625l-0.20456,0.28638l-1.46284,-1.04488c-0.25965,-0.18063 -0.42961,-0.48121 -0.42961,-0.82148c0,-0.55228 0.44772,-1 1,-1h1.38655c-0.2232,-0.5525 -0.45915,-1.06182 -0.75597,-1.42105c-0.30998,0 -0.73584,0 -0.73584,0c-0.55228,0 -1,-0.44772 -1,-1c0,-0.55228 0.44772,-1 1,-1h1.05263v0.11105c0.08624,-0.01763 0.17444,-0.01614 0.26443,0.01038l-0.21179,-0.70038c0,0 0,-1 1,-1c1,0 1,1 1,1l-0.21179,1.9312c-0.01219,0.00454 -0.02444,0.00901 -0.03675,0.01341c0.16213,0.16467 0.30871,0.33467 0.44211,0.52747c1.26057,-0.7783 2.0972,0.6865 3.09933,-0.54761c0,0 0.4392,-0.4392 0.97147,-0.27918c0.21038,-0.06361 0.47177,-0.05402 0.77645,0.12879c0.85749,0.5145 0.343,1.37199 0.343,1.37199c-0.68513,1.13026 -1.90822,3.24792 -3.42057,3.94686c-0.17481,0.29117 -0.49364,0.48601 -0.85797,0.48601z" fill="#ff0000" stroke="none" stroke-width="0.5" stroke-linecap="butt"/><path d="M244.96491,182.65207c-1,0 -1,-1 -1,-1l0.07152,-0.41808c-0.53748,-1.44475 -1.12523,-2.0975 -0.05841,-3.69305c0.16424,-0.24564 0.65694,0.15834 0.886,-0.02833c0.01598,-0.01303 -2.19551,-1.75145 -2.79385,-1.70264c0,0 -1,0 -1,-1c0,-1 1,-1 1,-1c1.96781,0.08819 5.17256,1.96808 4.57457,4.61315c-0.09681,0.42821 -0.88524,0.21311 -1.21927,0.49799c-0.41552,0.35438 0.24667,1.07081 0.46791,1.5701l0.07152,1.16086c0,0 0,1 -1,1z" fill="#ff0000" stroke="none" stroke-width="0.5" stroke-linecap="butt"/><path d="M238.56676,172.52391c0.70711,0.70711 0,1.41421 0,1.41421l-0.62638,0.57507c-0.10907,0.52821 -0.1377,1.07323 -0.13336,1.61256c0,0 0,1 -1,1c-1,0 -1,-1 -1,-1c0.00559,-0.87582 0.16398,-1.75258 0.39296,-2.59796l0.95257,-1.00388c0,0 0.70711,-0.70711 1.41421,0z" fill="#ff0000" stroke="none" stroke-width="0.5" stroke-linecap="butt"/></g></g></svg>