<?xml version="1.0" encoding="UTF-8"?>
<svg id="Layer_1" data-name="Layer 1" xmlns="http://www.w3.org/2000/svg" xmlns:xlink="http://www.w3.org/1999/xlink" viewBox="0 0 304.05 49.65">
  <defs>
    <style>
      .cls-1 {
        fill: url(#linear-gradient-2);
      }

      .cls-2 {
        fill: none;
        stroke: #333;
        stroke-linecap: square;
        stroke-miterlimit: 3;
        stroke-width: 2px;
      }

      .cls-3 {
        fill: url(#linear-gradient);
      }
    </style>
    <linearGradient id="linear-gradient" x1="-907.05" y1="182.48" x2="731.35" y2="182.48" gradientTransform="translate(89.1 207.3) scale(1 -1)" gradientUnits="userSpaceOnUse">
      <stop offset="0" stop-color="red"/>
      <stop offset="1" stop-color="#ffd47c"/>
    </linearGradient>
    <linearGradient id="linear-gradient-2" x1="63.05" y1="159.91" x2="63.05" y2="202.99" gradientTransform="translate(89.1 207.3) scale(1 -1)" gradientUnits="userSpaceOnUse">
      <stop offset="0" stop-color="#cafffd"/>
      <stop offset="1" stop-color="#5badff"/>
    </linearGradient>
  </defs>
  <g>
    <g id="Symbol_4_0_Layer1_0_FILL" data-name="Symbol 4 0 Layer1 0 FILL">
      <path class="cls-3" d="M8.55,2.95H1.25l7.9,35.55h7.35l5.8-23.8,5.8,23.8h7.35L43.35,2.95h-7.3l-4.8,25.3L25.4,2.95h-6.2l-5.85,25.25L8.55,2.95M49.45,20c0-.97,.35-1.75,1.05-2.35,.67-.57,1.58-.85,2.75-.85,1.37,0,2.37,.37,3,1.1,.6,.73,.9,1.72,.9,2.95v1.5h-3.25c-3.9,.03-6.88,.8-8.95,2.3-2.1,1.5-3.15,3.65-3.15,6.45,0,2.27,.85,4.15,2.55,5.65s3.85,2.25,6.45,2.25c2.73,0,4.95-.95,6.65-2.85,.17,.93,.4,1.72,.7,2.35h7.15v-.4c-.7-1.3-1.05-3.2-1.05-5.7v-11.45c0-2.97-.95-5.27-2.85-6.9-1.93-1.63-4.52-2.45-7.75-2.45-2.17,0-4.12,.37-5.85,1.1-1.7,.73-3.03,1.75-4,3.05-.93,1.3-1.4,2.72-1.4,4.25h7.05m5.75,12.9c-.87,.47-1.82,.7-2.85,.7-1.1,0-1.95-.28-2.55-.85-.63-.57-.95-1.3-.95-2.2l.05-.4c.23-2.43,2.12-3.65,5.65-3.65h2.6v4.55c-.4,.77-1.05,1.38-1.95,1.85m15.45-20.8h-7.4l8.95,26.4h6.7l8.95-26.4h-7.4l-4.9,17.8-4.9-17.8m39.3,12.6c0-4.17-1.03-7.4-3.1-9.7-2.1-2.27-4.95-3.4-8.55-3.4-2.43,0-4.58,.57-6.45,1.7-1.87,1.13-3.32,2.75-4.35,4.85-1.03,2.07-1.55,4.43-1.55,7.1v.7c0,3.93,1.22,7.08,3.65,9.45,2.43,2.4,5.58,3.6,9.45,3.6,2.2,0,4.2-.42,6-1.25,1.83-.87,3.27-2.03,4.3-3.5l-3.45-3.9c-1.53,1.97-3.65,2.95-6.35,2.95-1.77,0-3.22-.52-4.35-1.55-1.17-1.07-1.87-2.45-2.1-4.15h16.85v-2.9m-6.95-2.5v.6h-9.8c.23-1.77,.78-3.13,1.65-4.1,.87-.93,2-1.4,3.4-1.4,1.5,0,2.67,.43,3.5,1.3,.8,.83,1.22,2.03,1.25,3.6m68,1.55c-.27-3.73-1.52-6.7-3.75-8.9-2.27-2.17-5.18-3.25-8.75-3.25-2.5,0-4.7,.57-6.6,1.7-1.9,1.1-3.35,2.68-4.35,4.75-1.03,2.03-1.55,4.37-1.55,7v.3c0,.43,.02,.87,.05,1.3h-6.6c-.17,2.17-.8,3.77-1.9,4.8-1.13,1.03-2.83,1.55-5.1,1.55-2.5,0-4.32-.88-5.45-2.65-1.2-1.77-1.8-4.58-1.8-8.45v-2.65c.03-3.7,.67-6.42,1.9-8.15,1.2-1.77,3.02-2.65,5.45-2.65,2.27,0,3.95,.53,5.05,1.6,1.1,1,1.73,2.65,1.9,4.95h7.35c-.4-3.97-1.85-7.05-4.35-9.25-2.53-2.2-5.85-3.3-9.95-3.3-2.93,0-5.52,.7-7.75,2.1-2.27,1.4-4,3.4-5.2,6-1.2,2.6-1.8,5.62-1.8,9.05v2.15c0,5.37,1.32,9.58,3.95,12.65,2.6,3.07,6.17,4.6,10.7,4.6,4.17,0,7.53-1.1,10.1-3.3,1.93-1.67,3.22-3.8,3.85-6.4,.5,2.4,1.52,4.42,3.05,6.05,2.23,2.43,5.27,3.65,9.1,3.65s6.83-1.22,9.1-3.65c2.27-2.47,3.4-5.73,3.4-9.8l-.05-1.8m-16.5-4.45c.93-1.33,2.27-2,4-2s3.08,.67,4.05,2c.97,1.37,1.45,3.27,1.45,5.7,0,2.9-.48,5-1.45,6.3-.97,1.33-2.3,2-4,2s-3.12-.67-4.05-2c-.97-1.33-1.45-3.25-1.45-5.75,0-2.83,.48-4.92,1.45-6.25m54.75,2.35c0-3.37-.7-5.88-2.1-7.55-1.4-1.67-3.53-2.5-6.4-2.5-3.43,0-6.08,1.33-7.95,4-1.27-2.67-3.6-4-7-4-3.2,0-5.73,1.15-7.6,3.45l-.2-2.95h-6.65v26.4h7.05V19.8c.9-1.63,2.35-2.45,4.35-2.45,1.47,0,2.5,.33,3.1,1,.6,.7,.9,1.82,.9,3.35v16.8h7.05l-.05-18.15c.83-2,2.3-3,4.4-3,1.5,0,2.53,.35,3.1,1.05,.6,.67,.9,1.75,.9,3.25v16.85h7.1V21.65m25.2,3.5c0-4.23-.9-7.55-2.7-9.95-1.83-2.4-4.37-3.6-7.6-3.6-2.77,0-5,1.02-6.7,3.05l-.25-2.55h-6.55V48.65h7.05v-12.45c1.67,1.87,3.83,2.8,6.5,2.8,3.13,0,5.63-1.22,7.5-3.65,1.83-2.47,2.75-5.73,2.75-9.8v-.4m-8.35-5.8c.87,1.33,1.3,3.22,1.3,5.65,0,5.53-1.68,8.3-5.05,8.3-2.23,0-3.78-.87-4.65-2.6v-10.85c.83-1.67,2.37-2.5,4.6-2.5,1.63,0,2.9,.67,3.8,2M242.25,1h-7.05V38.5h7.05V1m33.3,11.1V5.6h-7.05v6.5h-3.85v3.7c-.2-.27-.42-.53-.65-.8-2.1-2.27-4.95-3.4-8.55-3.4-2.43,0-4.58,.57-6.45,1.7s-3.32,2.75-4.35,4.85c-1.03,2.07-1.55,4.43-1.55,7.1v.7c0,3.93,1.22,7.08,3.65,9.45,2.43,2.4,5.58,3.6,9.45,3.6,2.2,0,4.2-.42,6-1.25,1.83-.87,3.27-2.03,4.3-3.5l-3.45-3.9c-1.53,1.97-3.65,2.95-6.35,2.95-1.77,0-3.22-.52-4.35-1.55-1.17-1.07-1.87-2.45-2.1-4.15h16.85v-2.9c0-2.97-.52-5.45-1.55-7.45h2.95v14.25c.1,5,2.62,7.5,7.55,7.5,1.47,0,2.9-.22,4.3-.65v-5.35c-.6,.13-1.3,.2-2.1,.2-1.03,0-1.75-.22-2.15-.65-.37-.43-.55-1.13-.55-2.1v-13.2h4.5v-5.15h-4.5m-25.2,10.7c.23-1.77,.78-3.13,1.65-4.1,.87-.93,2-1.4,3.4-1.4,1.5,0,2.67,.43,3.5,1.3,.8,.83,1.22,2.03,1.25,3.6v.6h-9.8m52.7,1.9c0-4.17-1.03-7.4-3.1-9.7-2.1-2.27-4.95-3.4-8.55-3.4-2.43,0-4.58,.57-6.45,1.7s-3.32,2.75-4.35,4.85c-1.03,2.07-1.55,4.43-1.55,7.1v.7c0,3.93,1.22,7.08,3.65,9.45,2.43,2.4,5.58,3.6,9.45,3.6,2.2,0,4.2-.42,6-1.25,1.83-.87,3.27-2.03,4.3-3.5l-3.45-3.9c-1.53,1.97-3.65,2.95-6.35,2.95-1.77,0-3.22-.52-4.35-1.55-1.17-1.07-1.87-2.45-2.1-4.15h16.85v-2.9m-11.7-7.4c1.5,0,2.67,.43,3.5,1.3,.8,.83,1.22,2.03,1.25,3.6v.6h-9.8c.23-1.77,.78-3.13,1.65-4.1,.87-.93,2-1.4,3.4-1.4Z"/>
    </g>
    <path id="Symbol_4_0_Layer1_0_1_STROKES" data-name="Symbol 4 0 Layer1 0 1 STROKES" class="cls-2" d="M291.35,17.3c-1.4,0-2.53,.47-3.4,1.4-.87,.97-1.42,2.33-1.65,4.1h9.8v-.6c-.03-1.57-.45-2.77-1.25-3.6-.83-.87-2-1.3-3.5-1.3Zm.8,21.7c-3.87,0-7.02-1.2-9.45-3.6-2.43-2.37-3.65-5.52-3.65-9.45v-.7c0-2.67,.52-5.03,1.55-7.1,1.03-2.1,2.48-3.72,4.35-4.85s4.02-1.7,6.45-1.7c3.6,0,6.45,1.13,8.55,3.4,2.07,2.3,3.1,5.53,3.1,9.7v2.9h-16.85c.23,1.7,.93,3.08,2.1,4.15,1.13,1.03,2.58,1.55,4.35,1.55,2.7,0,4.82-.98,6.35-2.95l3.45,3.9c-1.03,1.47-2.47,2.63-4.3,3.5-1.8,.83-3.8,1.25-6,1.25Zm-35.95,0c-3.87,0-7.02-1.2-9.45-3.6-2.43-2.37-3.65-5.52-3.65-9.45v-.7c0-2.67,.52-5.03,1.55-7.1,1.03-2.1,2.48-3.72,4.35-4.85s4.02-1.7,6.45-1.7c3.6,0,6.45,1.13,8.55,3.4,.23,.27,.45,.53,.65,.8v-3.7h3.85V5.6h7.05v6.5h4.5v5.15h-4.5v13.2c0,.97,.18,1.67,.55,2.1,.4,.43,1.12,.65,2.15,.65,.8,0,1.5-.07,2.1-.2v5.35c-1.4,.43-2.83,.65-4.3,.65-4.93,0-7.45-2.5-7.55-7.5v-14.25h-2.95c1.03,2,1.55,4.48,1.55,7.45v2.9h-16.85c.23,1.7,.93,3.08,2.1,4.15,1.13,1.03,2.58,1.55,4.35,1.55,2.7,0,4.82-.98,6.35-2.95l3.45,3.9c-1.03,1.47-2.47,2.63-4.3,3.5-1.8,.83-3.8,1.25-6,1.25Zm-.8-21.7c-1.4,0-2.53,.47-3.4,1.4-.87,.97-1.42,2.33-1.65,4.1h9.8v-.6c-.03-1.57-.45-2.77-1.25-3.6-.83-.87-2-1.3-3.5-1.3Zm-13.15,21.2h-7.05V1h7.05V38.5Zm-14.85-13.5c0-2.43-.43-4.32-1.3-5.65-.9-1.33-2.17-2-3.8-2-2.23,0-3.77,.83-4.6,2.5v10.85c.87,1.73,2.42,2.6,4.65,2.6,3.37,0,5.05-2.77,5.05-8.3Zm7.05,.55c0,4.07-.92,7.33-2.75,9.8-1.87,2.43-4.37,3.65-7.5,3.65-2.67,0-4.83-.93-6.5-2.8v12.45h-7.05V12.1h6.55l.25,2.55c1.7-2.03,3.93-3.05,6.7-3.05,3.23,0,5.77,1.2,7.6,3.6,1.8,2.4,2.7,5.72,2.7,9.95v.4Zm-56.45-13.45l.2,2.95c1.87-2.3,4.4-3.45,7.6-3.45,3.4,0,5.73,1.33,7,4,1.87-2.67,4.52-4,7.95-4,2.87,0,5,.83,6.4,2.5,1.4,1.67,2.1,4.18,2.1,7.55v16.85h-7.1V21.65c0-1.5-.3-2.58-.9-3.25-.57-.7-1.6-1.05-3.1-1.05-2.1,0-3.57,1-4.4,3l.05,18.15h-7.05V21.7c0-1.53-.3-2.65-.9-3.35-.6-.67-1.63-1-3.1-1-2,0-3.45,.82-4.35,2.45v18.7h-7.05V12.1h6.65Zm-32,12.95c0-2.63,.52-4.97,1.55-7,1-2.07,2.45-3.65,4.35-4.75,1.9-1.13,4.1-1.7,6.6-1.7,3.57,0,6.48,1.08,8.75,3.25,2.23,2.2,3.48,5.17,3.75,8.9l.05,1.8c0,4.07-1.13,7.33-3.4,9.8-2.27,2.43-5.3,3.65-9.1,3.65s-6.87-1.22-9.1-3.65c-1.53-1.63-2.55-3.65-3.05-6.05-.63,2.6-1.92,4.73-3.85,6.4-2.57,2.2-5.93,3.3-10.1,3.3-4.53,0-8.1-1.53-10.7-4.6-2.63-3.07-3.95-7.28-3.95-12.65v-2.15c0-3.43,.6-6.45,1.8-9.05,1.2-2.6,2.93-4.6,5.2-6,2.23-1.4,4.82-2.1,7.75-2.1,4.1,0,7.42,1.1,9.95,3.3,2.5,2.2,3.95,5.28,4.35,9.25h-7.35c-.17-2.3-.8-3.95-1.9-4.95-1.1-1.07-2.78-1.6-5.05-1.6-2.43,0-4.25,.88-5.45,2.65-1.23,1.73-1.87,4.45-1.9,8.15v2.65c0,3.87,.6,6.68,1.8,8.45,1.13,1.77,2.95,2.65,5.45,2.65,2.27,0,3.97-.52,5.1-1.55,1.1-1.03,1.73-2.63,1.9-4.8h6.6c-.03-.43-.05-.87-.05-1.3v-.3Zm7.05,.5c0,2.5,.48,4.42,1.45,5.75,.93,1.33,2.28,2,4.05,2s3.03-.67,4-2c.97-1.3,1.45-3.4,1.45-6.3,0-2.43-.48-4.33-1.45-5.7-.97-1.33-2.32-2-4.05-2s-3.07,.67-4,2c-.97,1.33-1.45,3.42-1.45,6.25Zm-54,13.45c-3.87,0-7.02-1.2-9.45-3.6-2.43-2.37-3.65-5.52-3.65-9.45v-.7c0-2.67,.52-5.03,1.55-7.1,1.03-2.1,2.48-3.72,4.35-4.85,1.87-1.13,4.02-1.7,6.45-1.7,3.6,0,6.45,1.13,8.55,3.4,2.07,2.3,3.1,5.53,3.1,9.7v2.9h-16.85c.23,1.7,.93,3.08,2.1,4.15,1.13,1.03,2.58,1.55,4.35,1.55,2.7,0,4.82-.98,6.35-2.95l3.45,3.9c-1.03,1.47-2.47,2.63-4.3,3.5-1.8,.83-3.8,1.25-6,1.25Zm-.8-21.7c-1.4,0-2.53,.47-3.4,1.4-.87,.97-1.42,2.33-1.65,4.1h9.8v-.6c-.03-1.57-.45-2.77-1.25-3.6-.83-.87-2-1.3-3.5-1.3Zm-22.7,12.6l4.9-17.8h7.4l-8.95,26.4h-6.7l-8.95-26.4h7.4l4.9,17.8Zm-17.4,8.6c-.3-.63-.53-1.42-.7-2.35-1.7,1.9-3.92,2.85-6.65,2.85s-4.75-.75-6.45-2.25-2.55-3.38-2.55-5.65c0-2.8,1.05-4.95,3.15-6.45,2.07-1.5,5.05-2.27,8.95-2.3h3.25v-1.5c0-1.23-.3-2.22-.9-2.95-.63-.73-1.63-1.1-3-1.1-1.17,0-2.08,.28-2.75,.85-.7,.6-1.05,1.38-1.05,2.35h-7.05c0-1.53,.47-2.95,1.4-4.25,.97-1.3,2.3-2.32,4-3.05,1.73-.73,3.68-1.1,5.85-1.1,3.23,0,5.82,.82,7.75,2.45,1.9,1.63,2.85,3.93,2.85,6.9v11.45c0,2.5,.35,4.4,1.05,5.7v.4h-7.15Zm-5.8-4.9c1.03,0,1.98-.23,2.85-.7,.9-.47,1.55-1.08,1.95-1.85v-4.55h-2.6c-3.53,0-5.42,1.22-5.65,3.65l-.05,.4c0,.9,.32,1.63,.95,2.2,.6,.57,1.45,.85,2.55,.85Zm-21.1-5.35L36.05,2.95h7.3l-7.9,35.55h-7.35l-5.8-23.8-5.8,23.8h-7.35L1.25,2.95h7.3l4.8,25.25L19.2,2.95h6.2l5.85,25.3Z"/>
  </g>
  <g id="Symbol_4_0_Layer0_0_FILL" data-name="Symbol 4 0 Layer0 0 FILL">
    <path class="cls-1" d="M8.55,2.95H1.25l7.9,35.55h7.35l5.8-23.8,5.8,23.8h7.35L43.35,2.95h-7.3l-4.8,25.3L25.4,2.95h-6.2l-5.85,25.25L8.55,2.95M42.4,20h7.05c0-.97,.35-1.75,1.05-2.35,.67-.57,1.58-.85,2.75-.85,1.37,0,2.37,.37,3,1.1,.6,.73,.9,1.72,.9,2.95v1.5h-3.25c-3.9,.03-6.88,.8-8.95,2.3-2.1,1.5-3.15,3.65-3.15,6.45,0,2.27,.85,4.15,2.55,5.65s3.85,2.25,6.45,2.25c2.73,0,4.95-.95,6.65-2.85,.17,.93,.4,1.72,.7,2.35h7.15v-.4c-.7-1.3-1.05-3.2-1.05-5.7v-11.45c0-2.97-.95-5.27-2.85-6.9-1.93-1.63-4.52-2.45-7.75-2.45-2.17,0-4.12,.37-5.85,1.1-1.7,.73-3.03,1.75-4,3.05-.93,1.3-1.4,2.72-1.4,4.25m12.15,6.5h2.6v4.55c-.4,.77-1.05,1.38-1.95,1.85-.87,.47-1.82,.7-2.85,.7-1.1,0-1.95-.28-2.55-.85-.63-.57-.95-1.3-.95-2.2l.05-.4c.23-2.43,2.12-3.65,5.65-3.65m16.1-14.4h-7.4l8.95,26.4h6.7l8.95-26.4h-7.4l-4.9,17.8-4.9-17.8m39.3,12.6c0-4.17-1.03-7.4-3.1-9.7-2.1-2.27-4.95-3.4-8.55-3.4-2.43,0-4.58,.57-6.45,1.7-1.87,1.13-3.32,2.75-4.35,4.85-1.03,2.07-1.55,4.43-1.55,7.1v.7c0,3.93,1.22,7.08,3.65,9.45,2.43,2.4,5.58,3.6,9.45,3.6,2.2,0,4.2-.42,6-1.25,1.83-.87,3.27-2.03,4.3-3.5l-3.45-3.9c-1.53,1.97-3.65,2.95-6.35,2.95-1.77,0-3.22-.52-4.35-1.55-1.17-1.07-1.87-2.45-2.1-4.15h16.85v-2.9m-6.95-2.5v.6h-9.8c.23-1.77,.78-3.13,1.65-4.1,.87-.93,2-1.4,3.4-1.4,1.5,0,2.67,.43,3.5,1.3,.8,.83,1.22,2.03,1.25,3.6m68,1.55c-.27-3.73-1.52-6.7-3.75-8.9-2.27-2.17-5.18-3.25-8.75-3.25-2.5,0-4.7,.57-6.6,1.7-1.9,1.1-3.35,2.68-4.35,4.75-1.03,2.03-1.55,4.37-1.55,7v.3c0,.43,.02,.87,.05,1.3h-6.6c-.17,2.17-.8,3.77-1.9,4.8-1.13,1.03-2.83,1.55-5.1,1.55-2.5,0-4.32-.88-5.45-2.65-1.2-1.77-1.8-4.58-1.8-8.45v-2.65c.03-3.7,.67-6.42,1.9-8.15,1.2-1.77,3.02-2.65,5.45-2.65,2.27,0,3.95,.53,5.05,1.6,1.1,1,1.73,2.65,1.9,4.95h7.35c-.4-3.97-1.85-7.05-4.35-9.25-2.53-2.2-5.85-3.3-9.95-3.3-2.93,0-5.52,.7-7.75,2.1-2.27,1.4-4,3.4-5.2,6-1.2,2.6-1.8,5.62-1.8,9.05v2.15c0,5.37,1.32,9.58,3.95,12.65,2.6,3.07,6.17,4.6,10.7,4.6,4.17,0,7.53-1.1,10.1-3.3,1.93-1.67,3.22-3.8,3.85-6.4,.5,2.4,1.52,4.42,3.05,6.05,2.23,2.43,5.27,3.65,9.1,3.65s6.83-1.22,9.1-3.65c2.27-2.47,3.4-5.73,3.4-9.8l-.05-1.8m-16.5-4.45c.93-1.33,2.27-2,4-2s3.08,.67,4.05,2c.97,1.37,1.45,3.27,1.45,5.7,0,2.9-.48,5-1.45,6.3-.97,1.33-2.3,2-4,2s-3.12-.67-4.05-2c-.97-1.33-1.45-3.25-1.45-5.75,0-2.83,.48-4.92,1.45-6.25m54.75,2.35c0-3.37-.7-5.88-2.1-7.55-1.4-1.67-3.53-2.5-6.4-2.5-3.43,0-6.08,1.33-7.95,4-1.27-2.67-3.6-4-7-4-3.2,0-5.73,1.15-7.6,3.45l-.2-2.95h-6.65v26.4h7.05V19.8c.9-1.63,2.35-2.45,4.35-2.45,1.47,0,2.5,.33,3.1,1,.6,.7,.9,1.82,.9,3.35v16.8h7.05l-.05-18.15c.83-2,2.3-3,4.4-3,1.5,0,2.53,.35,3.1,1.05,.6,.67,.9,1.75,.9,3.25v16.85h7.1V21.65M242.25,1h-7.05V38.5h7.05V1m-10.5,14.2c-1.83-2.4-4.37-3.6-7.6-3.6-2.77,0-5,1.02-6.7,3.05l-.25-2.55h-6.55V48.65h7.05v-12.45c1.67,1.87,3.83,2.8,6.5,2.8,3.13,0,5.63-1.22,7.5-3.65,1.83-2.47,2.75-5.73,2.75-9.8v-.4c0-4.23-.9-7.55-2.7-9.95m-5.65,4.15c.87,1.33,1.3,3.22,1.3,5.65,0,5.53-1.68,8.3-5.05,8.3-2.23,0-3.78-.87-4.65-2.6v-10.85c.83-1.67,2.37-2.5,4.6-2.5,1.63,0,2.9,.67,3.8,2m49.45-7.25V5.6h-7.05v6.5h-3.85v3.7c-.2-.27-.42-.53-.65-.8-2.1-2.27-4.95-3.4-8.55-3.4-2.43,0-4.58,.57-6.45,1.7s-3.32,2.75-4.35,4.85c-1.03,2.07-1.55,4.43-1.55,7.1v.7c0,3.93,1.22,7.08,3.65,9.45,2.43,2.4,5.58,3.6,9.45,3.6,2.2,0,4.2-.42,6-1.25,1.83-.87,3.27-2.03,4.3-3.5l-3.45-3.9c-1.53,1.97-3.65,2.95-6.35,2.95-1.77,0-3.22-.52-4.35-1.55-1.17-1.07-1.87-2.45-2.1-4.15h16.85v-2.9c0-2.97-.52-5.45-1.55-7.45h2.95v14.25c.1,5,2.62,7.5,7.55,7.5,1.47,0,2.9-.22,4.3-.65v-5.35c-.6,.13-1.3,.2-2.1,.2-1.03,0-1.75-.22-2.15-.65-.37-.43-.55-1.13-.55-2.1v-13.2h4.5v-5.15h-4.5m-25.2,10.7c.23-1.77,.78-3.13,1.65-4.1,.87-.93,2-1.4,3.4-1.4,1.5,0,2.67,.43,3.5,1.3,.8,.83,1.22,2.03,1.25,3.6v.6h-9.8m52.7,1.9c0-4.17-1.03-7.4-3.1-9.7-2.1-2.27-4.95-3.4-8.55-3.4-2.43,0-4.58,.57-6.45,1.7s-3.32,2.75-4.35,4.85c-1.03,2.07-1.55,4.43-1.55,7.1v.7c0,3.93,1.22,7.08,3.65,9.45,2.43,2.4,5.58,3.6,9.45,3.6,2.2,0,4.2-.42,6-1.25,1.83-.87,3.27-2.03,4.3-3.5l-3.45-3.9c-1.53,1.97-3.65,2.95-6.35,2.95-1.77,0-3.22-.52-4.35-1.55-1.17-1.07-1.87-2.45-2.1-4.15h16.85v-2.9m-15.1-6c.87-.93,2-1.4,3.4-1.4,1.5,0,2.67,.43,3.5,1.3,.8,.83,1.22,2.03,1.25,3.6v.6h-9.8c.23-1.77,.78-3.13,1.65-4.1Z"/>
  </g>
</svg>