<?xml version="1.0" encoding="UTF-8"?>
<svg id="Layer_1" data-name="Layer 1" xmlns="http://www.w3.org/2000/svg" viewBox="0 0 26.93 29.98">
  <defs>
    <style>
      .cls-1 {
        fill: #5cae3f;
      }

      .cls-2 {
        fill: none;
        stroke: #2c1a26;
        stroke-linecap: round;
        stroke-linejoin: round;
        stroke-width: 1.61px;
      }

      .cls-3 {
        fill: #72dc5a;
      }
    </style>
  </defs>
  <g id="zombie_0_Layer0_0_FILL" data-name="zombie 0 Layer0 0 FILL">
    <path class="cls-1" d="M19.41,4.38c-.19-.12-.36-.23-.52-.34-.35-.23-.71-.44-1.09-.62-.69-.32-1.5-.57-2.41-.74-.04,0-.08-.01-.12-.02-1.13-.2-2.44-.29-3.92-.26-2.72,.05-5.25,1.38-7.58,3.98C1.43,8.99,.47,11.94,.91,15.22c.43,3.29,1.31,5.95,2.63,7.98,1.32,2.05,2.84,3.27,4.54,3.66,1.72,.41,3.06,.64,4.02,.68,.96,.05,1.51,.07,1.65,.06,1.6-.09,2.8-.34,3.6-.74l.24-.12c1.15-.67,2.63-1.88,4.44-3.64,1.82-1.74,2.77-3.73,2.84-5.97,.08-2.24,.04-3.57-.12-4s-.32-1.35-.46-2.76c-.15-1.39-.86-2.64-2.15-3.74-1.27-1.09-2.19-1.84-2.74-2.25m.16,3.04c.21,.28,.41,.57,.58,.86,.28,.08,.54,.29,.76,.62,.03,.03,.05,.05,.08,.08,.29,.51,.44,1.12,.44,1.83,0,.35-.03,.67-.1,.97,.03,.23,.06,.47,.1,.72-.03,.03-.03,.05,0,.08v.34c.09,1.89-.38,3.51-1.41,4.85-.12,.11-.23,.23-.32,.38,.07-.03,.13-.04,.2-.04,.4,0,.74,.22,1.01,.66,.03,.03,.05,.05,.08,.06,.29,.51,.44,1.12,.44,1.83s-.15,1.33-.44,1.81c-.31,.51-.67,.76-1.09,.76-.39,0-.71-.19-.97-.56-.04-.07-.09-.13-.14-.2-.27-.48-.4-1.09-.4-1.81,0-.08,0-.17,0-.26,0-.19,.02-.36,.06-.52l-.04,.04s-.07,0-.1,.02c-.25,.05-.61,.19-1.07,.42-.48,.2-.88,.3-1.21,.3-2.55,.66-4.66,.08-6.33-1.73-1.72-1.8-2.43-4.15-2.15-7.06,.23-2.92,1.23-5.02,3.02-6.29,1.77-1.29,3.44-1.64,5.01-1.07,1.57,.55,2.9,1.51,3.98,2.9Z"/>
    <path d="M19.91,18.12c-.07,0-.13,.01-.2,.04-.29,.04-.58,.22-.86,.54s-.42,.61-.42,.86c-.01,.21-.01,.34,0,.36l.04-.04c-.04,.16-.06,.34-.06,.52,0,.09,0,.18,0,.26,0,.72,.13,1.33,.4,1.81,.05,.07,.1,.13,.14,.2,.25,.38,.58,.56,.97,.56,.42,0,.78-.25,1.09-.76,.29-.48,.44-1.09,.44-1.81s-.15-1.32-.44-1.83c-.03-.01-.05-.03-.08-.06-.27-.44-.6-.66-1.01-.66m-1.51-7.58c0,.09,0,.19,0,.28,0,.67,.13,1.23,.38,1.69,0,.05,0,.09,.02,.1,.05,.08,.1,.15,.14,.22,.03,.03,.05,.06,.08,.1,.25,.29,.55,.44,.88,.44s.62-.15,.86-.44c.08-.09,.15-.2,.22-.32,.01-.01,.03-.05,.06-.1,.12-.23,.21-.47,.28-.72,.07-.29,.1-.62,.1-.97,0-.71-.15-1.32-.44-1.83-.03-.03-.05-.05-.08-.08-.23-.34-.48-.54-.76-.62-.08-.01-.16-.02-.24-.02-.39,0-.71,.18-.97,.54-.04,.05-.09,.11-.14,.18-.25,.43-.39,.95-.4,1.55Z"/>
    <path class="cls-3" d="M20.15,8.29c-.17-.29-.37-.58-.58-.86-1.09-1.38-2.41-2.35-3.98-2.9-1.57-.58-3.24-.22-5.01,1.07-1.78,1.27-2.79,3.37-3.02,6.29-.28,2.91,.44,5.26,2.15,7.06,1.68,1.81,3.79,2.39,6.33,1.73,.32,0,.72-.1,1.21-.3,.46-.23,.81-.37,1.07-.42,.03-.01,.06-.02,.1-.02-.01-.03-.01-.15,0-.36,0-.25,.14-.54,.42-.86s.57-.5,.86-.54c.09-.15,.2-.27,.32-.38,1.03-1.34,1.5-2.96,1.41-4.85v-.34s-.03-.05,0-.08c-.04-.25-.07-.5-.1-.72-.07,.25-.16,.5-.28,.72-.03,.05-.05,.09-.06,.1-.07,.12-.14,.23-.22,.32-.24,.29-.53,.44-.86,.44s-.63-.15-.88-.44c-.03-.04-.05-.07-.08-.1-.04-.07-.09-.14-.14-.22-.01-.01-.02-.05-.02-.1-.25-.46-.38-1.02-.38-1.69,0-.09,0-.19,0-.28,.01-.6,.15-1.12,.4-1.55,.05-.07,.1-.13,.14-.18,.25-.36,.58-.54,.97-.54,.08,0,.16,0,.24,.02Z"/>
  </g>
  <path id="zombie_0_Layer0_0_1_STROKES" data-name="zombie 0 Layer0 0 1 STROKES" class="cls-2" d="M15.38,2.67c.92,.17,1.72,.42,2.41,.74,.38,.19,.74,.4,1.09,.62,.16,.11,.34,.22,.52,.34,.55,.42,1.46,1.17,2.75,2.26,1.28,1.09,1.99,2.34,2.14,3.74,.15,1.4,.3,2.32,.46,2.75s.2,1.76,.13,4c-.07,2.24-1.02,4.23-2.84,5.98-1.82,1.75-3.3,2.96-4.45,3.63l-.24,.12c-.8,.41-2,.65-3.6,.74,4.12,1.06,8.23,1.58,12.35,1.57m-12.35-1.57c-.14,0-.69-.01-1.65-.06-.96-.05-2.3-.27-4.01-.67-1.71-.4-3.23-1.62-4.55-3.66-1.32-2.04-2.2-4.71-2.63-7.99-.43-3.28,.52-6.23,2.86-8.84,2.34-2.61,4.87-3.94,7.59-3.99,1.47-.03,2.78,.06,3.91,.26,.04,0,.08,.01,.12,.02,3.71-1.16,7.29-1.78,10.74-1.87"/>
</svg>