<?xml version="1.0" encoding="UTF-8"?>
<svg id="Layer_1" data-name="Layer 1" xmlns="http://www.w3.org/2000/svg" viewBox="0 0 108.4 53.15">
  <defs>
    <style>
      .cls-1 {
        fill: #fff;
      }

      .cls-2 {
        fill: #f7be72;
      }

      .cls-3 {
        fill: #f74800;
      }
    </style>
  </defs>
  <g id="Muzzle_Flash_0_Layer0_0_FILL" data-name="Muzzle Flash 0 Layer0 0 FILL">
    <path class="cls-2" d="M53.45,42.75l-4.25-6.9,12-1.85-12.65-4.9,11.9-4.85c-10.7,.6-18.03,.02-22-1.75-1.07-3.17-.48-6.92,1.75-11.25-10.6,2.7-20.72,7.73-30.35,15.1l-1.9-5.6c-3.67,1.4-6.32,3.9-7.95,7.5,1.4,2.8,3.67,5.25,6.8,7.35,.07-3.3,.77-5.2,2.1-5.7,5.87,4.3,12.55,8.2,20.05,11.7-.43-5.8,.32-9.72,2.25-11.75,5.8,4.83,13.22,9.13,22.25,12.9M6.2,23.35c1.13-.4,1.75,.03,1.85,1.3,.1,1.27-.13,2.37-.7,3.3s-.77,2.05-.6,3.35c.17,1.3-.22,1.93-1.15,1.9s-1.9-.6-2.9-1.7c-1.03-1.1-1.57-2.12-1.6-3.05-.03-.93,.53-1.92,1.7-2.95,1.13-1.03,2.27-1.75,3.4-2.15Z"/>
    <path class="cls-1" d="M8.05,24.65c-.1-1.27-.72-1.7-1.85-1.3-1.13,.4-2.27,1.12-3.4,2.15-1.17,1.03-1.73,2.02-1.7,2.95,.03,.93,.57,1.95,1.6,3.05,1,1.1,1.97,1.67,2.9,1.7s1.32-.6,1.15-1.9c-.17-1.3,.03-2.42,.6-3.35s.8-2.03,.7-3.3Z"/>
    <path class="cls-3" d="M45.65,19.9c1.13-6.63,3.88-13.27,8.25-19.9C38.7,5.4,25.03,12.62,12.9,21.65c-1.17-1.37-2.05-3.87-2.65-7.5C4.85,16.65,1.43,21.35,0,28.25c1.63-3.6,4.28-6.1,7.95-7.5l1.9,5.6c9.63-7.37,19.75-12.4,30.35-15.1-2.23,4.33-2.82,8.08-1.75,11.25,3.97,1.77,11.3,2.35,22,1.75l-11.9,4.85,12.65,4.9-12,1.85,4.25,6.9c-9.03-3.77-16.45-8.07-22.25-12.9-1.93,2.03-2.68,5.95-2.25,11.75-7.5-3.5-14.18-7.4-20.05-11.7-1.33,.5-2.03,2.4-2.1,5.7-3.13-2.1-5.4-4.55-6.8-7.35,2.07,6.5,6.32,11.42,12.75,14.75l-3-9.6c6.77,7.63,14.35,13.05,22.75,16.25-.63-4.77-.63-9.23,0-13.4,9.87,6.9,20.55,12.53,32.05,16.9-4.1-4.77-7.18-9.65-9.25-14.65,7.87,2.97,16.57,3.98,26.1,3.05-6.9-2.47-12.6-5.7-17.1-9.7,13.6-4.9,28.3-8.88,44.1-11.95-21.07-1.83-41.98-1.83-62.75,0Z"/>
  </g>
</svg>