<?xml version="1.0" encoding="UTF-8"?>
<svg id="Layer_1" data-name="Layer 1" xmlns="http://www.w3.org/2000/svg" viewBox="0 0 38.21 32.39">
  <defs>
    <style>
      .cls-1 {
        fill: #ff115a;
      }

      .cls-2 {
        fill: none;
        stroke: #333;
        stroke-linecap: round;
        stroke-linejoin: round;
        stroke-width: 2.02px;
      }
    </style>
  </defs>
  <g id="Symbol_6_0_Layer0_0_FILL" data-name="Symbol 6 0 Layer0 0 FILL">
    <path class="cls-1" d="M37.1,11.64c.07-.4,.1-.81,.1-1.23,0-.25,0-.5-.03-.73-.17-2.28-1.08-4.26-2.75-5.92-1.83-1.83-4.04-2.75-6.62-2.75s-4.82,.92-6.65,2.75c-.92,.92-1.61,1.94-2.07,3.05-.45-1.11-1.14-2.12-2.07-3.05-1.83-1.83-4.04-2.75-6.62-2.75S5.58,1.92,3.75,3.75c-1.66,1.66-2.57,3.64-2.72,5.92-.02,.24-.03,.48-.03,.73,0,.42,.03,.83,.08,1.23,.05,.42,.13,.83,.23,1.23,.13,.5,.31,1,.53,1.49,2.91,7.42,8.66,13.1,17.26,17.03,8.61-3.93,14.37-9.61,17.26-17.03,.22-.49,.39-.98,.53-1.49,.12-.4,.19-.81,.23-1.23Z"/>
  </g>
  <path id="Symbol_6_0_Layer0_0_1_STROKES" data-name="Symbol 6 0 Layer0 0 1 STROKES" class="cls-2" d="M36.35,14.36c.22-.49,.39-.98,.53-1.49,.12-.4,.19-.81,.23-1.23,.07-.4,.1-.81,.1-1.23,0-.25,0-.5-.03-.73-.17-2.28-1.08-4.26-2.75-5.92-1.83-1.83-4.04-2.75-6.62-2.75s-4.82,.92-6.65,2.75c-.92,.92-1.61,1.94-2.07,3.05-.45-1.11-1.14-2.12-2.07-3.05-1.83-1.83-4.04-2.75-6.62-2.75S5.58,1.92,3.75,3.75c-1.66,1.66-2.57,3.64-2.72,5.92-.02,.24-.03,.48-.03,.73,0,.42,.03,.83,.08,1.23,.05,.42,.13,.83,.23,1.23,.13,.5,.31,1,.53,1.49,2.91,7.42,8.66,13.1,17.26,17.03,8.61-3.93,14.37-9.61,17.26-17.03Z"/>
</svg>